<svg xmlns="http://www.w3.org/2000/svg" width="1280" height="820" viewBox="0 0 1280 820" font-family="Segoe UI, Arial, sans-serif">
  <defs>
    <linearGradient id="bg" x1="0" y1="0" x2="0" y2="1">
      <stop offset="0" stop-color="#0d1117"/>
      <stop offset="1" stop-color="#161b22"/>
    </linearGradient>
    <linearGradient id="box1" x1="0" y1="0" x2="0" y2="1">
      <stop offset="0" stop-color="#1f6feb"/><stop offset="1" stop-color="#1158c7"/>
    </linearGradient>
    <linearGradient id="box2" x1="0" y1="0" x2="0" y2="1">
      <stop offset="0" stop-color="#238636"/><stop offset="1" stop-color="#196c2e"/>
    </linearGradient>
    <linearGradient id="box3" x1="0" y1="0" x2="0" y2="1">
      <stop offset="0" stop-color="#8957e5"/><stop offset="1" stop-color="#6e40c9"/>
    </linearGradient>
    <linearGradient id="box4" x1="0" y1="0" x2="0" y2="1">
      <stop offset="0" stop-color="#db6d28"/><stop offset="1" stop-color="#bb541a"/>
    </linearGradient>
    <marker id="arrow" markerWidth="12" markerHeight="12" refX="9" refY="5" orient="auto">
      <path d="M0,0 L10,5 L0,10 z" fill="#58a6ff"/>
    </marker>
    <filter id="shadow" x="-20%" y="-20%" width="140%" height="140%">
      <feDropShadow dx="0" dy="3" stdDeviation="4" flood-color="#000" flood-opacity="0.5"/>
    </filter>
  </defs>

  <rect width="1280" height="820" fill="url(#bg)"/>

  <!-- Title -->
  <text x="640" y="50" fill="#e6edf3" font-size="34" font-weight="700" text-anchor="middle">Daily GitHub Streak Agent — Architecture (100% Free)</text>
  <text x="640" y="82" fill="#8b949e" font-size="17" text-anchor="middle">Runs automatically in the cloud via GitHub Actions — no PC, no server, no cost</text>

  <!-- 1. Scheduler -->
  <g filter="url(#shadow)">
    <rect x="60" y="140" width="260" height="150" rx="16" fill="url(#box1)"/>
  </g>
  <text x="190" y="178" fill="#fff" font-size="20" font-weight="700" text-anchor="middle">1. Scheduler (Clock)</text>
  <text x="190" y="210" fill="#dbeafe" font-size="14" text-anchor="middle">GitHub Actions cron</text>
  <text x="190" y="232" fill="#dbeafe" font-size="14" text-anchor="middle">schedule: "30 3 * * *"</text>
  <text x="190" y="254" fill="#dbeafe" font-size="14" text-anchor="middle">Triggers once every day</text>
  <text x="190" y="276" fill="#dbeafe" font-size="13" text-anchor="middle">(+ manual run button)</text>

  <!-- 2. Runner -->
  <g filter="url(#shadow)">
    <rect x="380" y="140" width="280" height="150" rx="16" fill="url(#box2)"/>
  </g>
  <text x="520" y="178" fill="#fff" font-size="20" font-weight="700" text-anchor="middle">2. Runner (Free VM)</text>
  <text x="520" y="210" fill="#d8f3dc" font-size="14" text-anchor="middle">ubuntu-latest container</text>
  <text x="520" y="232" fill="#d8f3dc" font-size="14" text-anchor="middle">Checks out your repo</text>
  <text x="520" y="254" fill="#d8f3dc" font-size="14" text-anchor="middle">Sets up Python</text>
  <text x="520" y="276" fill="#d8f3dc" font-size="13" text-anchor="middle">Spins up &amp; destroys daily</text>

  <!-- 3. Agent script -->
  <g filter="url(#shadow)">
    <rect x="720" y="140" width="280" height="150" rx="16" fill="url(#box3)"/>
  </g>
  <text x="860" y="178" fill="#fff" font-size="20" font-weight="700" text-anchor="middle">3. Agent Script</text>
  <text x="860" y="210" fill="#ede9fe" font-size="14" text-anchor="middle">update.py (Python)</text>
  <text x="860" y="232" fill="#ede9fe" font-size="14" text-anchor="middle">Appends date + a quote</text>
  <text x="860" y="254" fill="#ede9fe" font-size="14" text-anchor="middle">to logs/activity.md</text>
  <text x="860" y="276" fill="#ede9fe" font-size="13" text-anchor="middle">Guarantees a real change</text>

  <!-- 4. Commit -->
  <g filter="url(#shadow)">
    <rect x="1040" y="140" width="180" height="150" rx="16" fill="url(#box4)"/>
  </g>
  <text x="1130" y="178" fill="#fff" font-size="20" font-weight="700" text-anchor="middle">4. Git</text>
  <text x="1130" y="210" fill="#ffe8d6" font-size="14" text-anchor="middle">git add .</text>
  <text x="1130" y="232" fill="#ffe8d6" font-size="14" text-anchor="middle">git commit</text>
  <text x="1130" y="254" fill="#ffe8d6" font-size="14" text-anchor="middle">git push</text>
  <text x="1130" y="276" fill="#ffe8d6" font-size="13" text-anchor="middle">uses GITHUB_TOKEN</text>

  <!-- arrows row 1 -->
  <line x1="320" y1="215" x2="376" y2="215" stroke="#58a6ff" stroke-width="3" marker-end="url(#arrow)"/>
  <line x1="660" y1="215" x2="716" y2="215" stroke="#58a6ff" stroke-width="3" marker-end="url(#arrow)"/>
  <line x1="1000" y1="215" x2="1036" y2="215" stroke="#58a6ff" stroke-width="3" marker-end="url(#arrow)"/>

  <!-- arrow down to GitHub -->
  <line x1="1130" y1="290" x2="1130" y2="430" stroke="#58a6ff" stroke-width="3" marker-end="url(#arrow)"/>

  <!-- GitHub repo + graph -->
  <g filter="url(#shadow)">
    <rect x="380" y="430" width="840" height="180" rx="16" fill="#21262d" stroke="#30363d" stroke-width="2"/>
  </g>
  <text x="800" y="468" fill="#e6edf3" font-size="22" font-weight="700" text-anchor="middle">5. Your GitHub Repository  →  Contribution Graph turns GREEN ✅</text>

  <!-- contribution graph mock -->
  <g transform="translate(430,495)">
    <!-- generate a grid of green squares -->
    <g>
      <!-- rows -->
      <g fill="#39d353">
        <!-- 7 rows x 30 cols -->
      </g>
    </g>
  </g>

  <!-- mock contribution squares -->
  <g transform="translate(430,495)">
    <!-- programmatically-looking grid -->
    <g>
      <!-- We'll place squares manually for visual effect -->
    </g>
  </g>

  <!-- simple legend bar -->
  <g transform="translate(430,500)">
    <rect width="740" height="90" rx="8" fill="#0d1117"/>
  </g>

  <!-- contribution cells -->
  <g>
<rect x="442" y="508" width="11" height="8" rx="2" fill="#006d32"/>
<rect x="457" y="508" width="11" height="8" rx="2" fill="#0e4429"/>
<rect x="472" y="508" width="11" height="8" rx="2" fill="#161b22"/>
<rect x="487" y="508" width="11" height="8" rx="2" fill="#26a641"/>
<rect x="502" y="508" width="11" height="8" rx="2" fill="#006d32"/>
<rect x="517" y="508" width="11" height="8" rx="2" fill="#161b22"/>
<rect x="532" y="508" width="11" height="8" rx="2" fill="#0e4429"/>
<rect x="547" y="508" width="11" height="8" rx="2" fill="#39d353"/>
<rect x="562" y="508" width="11" height="8" rx="2" fill="#161b22"/>
<rect x="577" y="508" width="11" height="8" rx="2" fill="#006d32"/>
<rect x="592" y="508" width="11" height="8" rx="2" fill="#0e4429"/>
<rect x="607" y="508" width="11" height="8" rx="2" fill="#39d353"/>
<rect x="622" y="508" width="11" height="8" rx="2" fill="#161b22"/>
<rect x="637" y="508" width="11" height="8" rx="2" fill="#006d32"/>
<rect x="652" y="508" width="11" height="8" rx="2" fill="#006d32"/>
<rect x="667" y="508" width="11" height="8" rx="2" fill="#26a641"/>
<rect x="682" y="508" width="11" height="8" rx="2" fill="#006d32"/>
<rect x="697" y="508" width="11" height="8" rx="2" fill="#161b22"/>
<rect x="712" y="508" width="11" height="8" rx="2" fill="#006d32"/>
<rect x="727" y="508" width="11" height="8" rx="2" fill="#0e4429"/>
<rect x="742" y="508" width="11" height="8" rx="2" fill="#006d32"/>
<rect x="757" y="508" width="11" height="8" rx="2" fill="#39d353"/>
<rect x="772" y="508" width="11" height="8" rx="2" fill="#39d353"/>
<rect x="787" y="508" width="11" height="8" rx="2" fill="#39d353"/>
<rect x="802" y="508" width="11" height="8" rx="2" fill="#006d32"/>
<rect x="817" y="508" width="11" height="8" rx="2" fill="#006d32"/>
<rect x="832" y="508" width="11" height="8" rx="2" fill="#161b22"/>
<rect x="847" y="508" width="11" height="8" rx="2" fill="#39d353"/>
<rect x="862" y="508" width="11" height="8" rx="2" fill="#39d353"/>
<rect x="877" y="508" width="11" height="8" rx="2" fill="#0e4429"/>
<rect x="892" y="508" width="11" height="8" rx="2" fill="#161b22"/>
<rect x="907" y="508" width="11" height="8" rx="2" fill="#26a641"/>
<rect x="922" y="508" width="11" height="8" rx="2" fill="#39d353"/>
<rect x="937" y="508" width="11" height="8" rx="2" fill="#0e4429"/>
<rect x="952" y="508" width="11" height="8" rx="2" fill="#26a641"/>
<rect x="967" y="508" width="11" height="8" rx="2" fill="#26a641"/>
<rect x="982" y="508" width="11" height="8" rx="2" fill="#39d353"/>
<rect x="997" y="508" width="11" height="8" rx="2" fill="#161b22"/>
<rect x="1012" y="508" width="11" height="8" rx="2" fill="#161b22"/>
<rect x="1027" y="508" width="11" height="8" rx="2" fill="#0e4429"/>
<rect x="1042" y="508" width="11" height="8" rx="2" fill="#161b22"/>
<rect x="1057" y="508" width="11" height="8" rx="2" fill="#39d353"/>
<rect x="1072" y="508" width="11" height="8" rx="2" fill="#39d353"/>
<rect x="1087" y="508" width="11" height="8" rx="2" fill="#26a641"/>
<rect x="1102" y="508" width="11" height="8" rx="2" fill="#161b22"/>
<rect x="1117" y="508" width="11" height="8" rx="2" fill="#006d32"/>
<rect x="1132" y="508" width="11" height="8" rx="2" fill="#39d353"/>
<rect x="1147" y="508" width="11" height="8" rx="2" fill="#161b22"/>
<rect x="442" y="519" width="11" height="8" rx="2" fill="#006d32"/>
<rect x="457" y="519" width="11" height="8" rx="2" fill="#39d353"/>
<rect x="472" y="519" width="11" height="8" rx="2" fill="#39d353"/>
<rect x="487" y="519" width="11" height="8" rx="2" fill="#161b22"/>
<rect x="502" y="519" width="11" height="8" rx="2" fill="#26a641"/>
<rect x="517" y="519" width="11" height="8" rx="2" fill="#39d353"/>
<rect x="532" y="519" width="11" height="8" rx="2" fill="#26a641"/>
<rect x="547" y="519" width="11" height="8" rx="2" fill="#26a641"/>
<rect x="562" y="519" width="11" height="8" rx="2" fill="#39d353"/>
<rect x="577" y="519" width="11" height="8" rx="2" fill="#006d32"/>
<rect x="592" y="519" width="11" height="8" rx="2" fill="#161b22"/>
<rect x="607" y="519" width="11" height="8" rx="2" fill="#006d32"/>
<rect x="622" y="519" width="11" height="8" rx="2" fill="#161b22"/>
<rect x="637" y="519" width="11" height="8" rx="2" fill="#006d32"/>
<rect x="652" y="519" width="11" height="8" rx="2" fill="#0e4429"/>
<rect x="667" y="519" width="11" height="8" rx="2" fill="#26a641"/>
<rect x="682" y="519" width="11" height="8" rx="2" fill="#26a641"/>
<rect x="697" y="519" width="11" height="8" rx="2" fill="#0e4429"/>
<rect x="712" y="519" width="11" height="8" rx="2" fill="#39d353"/>
<rect x="727" y="519" width="11" height="8" rx="2" fill="#39d353"/>
<rect x="742" y="519" width="11" height="8" rx="2" fill="#161b22"/>
<rect x="757" y="519" width="11" height="8" rx="2" fill="#0e4429"/>
<rect x="772" y="519" width="11" height="8" rx="2" fill="#006d32"/>
<rect x="787" y="519" width="11" height="8" rx="2" fill="#0e4429"/>
<rect x="802" y="519" width="11" height="8" rx="2" fill="#0e4429"/>
<rect x="817" y="519" width="11" height="8" rx="2" fill="#161b22"/>
<rect x="832" y="519" width="11" height="8" rx="2" fill="#0e4429"/>
<rect x="847" y="519" width="11" height="8" rx="2" fill="#0e4429"/>
<rect x="862" y="519" width="11" height="8" rx="2" fill="#161b22"/>
<rect x="877" y="519" width="11" height="8" rx="2" fill="#39d353"/>
<rect x="892" y="519" width="11" height="8" rx="2" fill="#26a641"/>
<rect x="907" y="519" width="11" height="8" rx="2" fill="#26a641"/>
<rect x="922" y="519" width="11" height="8" rx="2" fill="#0e4429"/>
<rect x="937" y="519" width="11" height="8" rx="2" fill="#39d353"/>
<rect x="952" y="519" width="11" height="8" rx="2" fill="#26a641"/>
<rect x="967" y="519" width="11" height="8" rx="2" fill="#161b22"/>
<rect x="982" y="519" width="11" height="8" rx="2" fill="#161b22"/>
<rect x="997" y="519" width="11" height="8" rx="2" fill="#26a641"/>
<rect x="1012" y="519" width="11" height="8" rx="2" fill="#006d32"/>
<rect x="1027" y="519" width="11" height="8" rx="2" fill="#006d32"/>
<rect x="1042" y="519" width="11" height="8" rx="2" fill="#26a641"/>
<rect x="1057" y="519" width="11" height="8" rx="2" fill="#0e4429"/>
<rect x="1072" y="519" width="11" height="8" rx="2" fill="#26a641"/>
<rect x="1087" y="519" width="11" height="8" rx="2" fill="#0e4429"/>
<rect x="1102" y="519" width="11" height="8" rx="2" fill="#26a641"/>
<rect x="1117" y="519" width="11" height="8" rx="2" fill="#006d32"/>
<rect x="1132" y="519" width="11" height="8" rx="2" fill="#006d32"/>
<rect x="1147" y="519" width="11" height="8" rx="2" fill="#26a641"/>
<rect x="442" y="530" width="11" height="8" rx="2" fill="#006d32"/>
<rect x="457" y="530" width="11" height="8" rx="2" fill="#39d353"/>
<rect x="472" y="530" width="11" height="8" rx="2" fill="#006d32"/>
<rect x="487" y="530" width="11" height="8" rx="2" fill="#39d353"/>
<rect x="502" y="530" width="11" height="8" rx="2" fill="#0e4429"/>
<rect x="517" y="530" width="11" height="8" rx="2" fill="#26a641"/>
<rect x="532" y="530" width="11" height="8" rx="2" fill="#006d32"/>
<rect x="547" y="530" width="11" height="8" rx="2" fill="#26a641"/>
<rect x="562" y="530" width="11" height="8" rx="2" fill="#26a641"/>
<rect x="577" y="530" width="11" height="8" rx="2" fill="#26a641"/>
<rect x="592" y="530" width="11" height="8" rx="2" fill="#161b22"/>
<rect x="607" y="530" width="11" height="8" rx="2" fill="#161b22"/>
<rect x="622" y="530" width="11" height="8" rx="2" fill="#26a641"/>
<rect x="637" y="530" width="11" height="8" rx="2" fill="#0e4429"/>
<rect x="652" y="530" width="11" height="8" rx="2" fill="#26a641"/>
<rect x="667" y="530" width="11" height="8" rx="2" fill="#0e4429"/>
<rect x="682" y="530" width="11" height="8" rx="2" fill="#0e4429"/>
<rect x="697" y="530" width="11" height="8" rx="2" fill="#006d32"/>
<rect x="712" y="530" width="11" height="8" rx="2" fill="#006d32"/>
<rect x="727" y="530" width="11" height="8" rx="2" fill="#26a641"/>
<rect x="742" y="530" width="11" height="8" rx="2" fill="#161b22"/>
<rect x="757" y="530" width="11" height="8" rx="2" fill="#39d353"/>
<rect x="772" y="530" width="11" height="8" rx="2" fill="#0e4429"/>
<rect x="787" y="530" width="11" height="8" rx="2" fill="#006d32"/>
<rect x="802" y="530" width="11" height="8" rx="2" fill="#0e4429"/>
<rect x="817" y="530" width="11" height="8" rx="2" fill="#39d353"/>
<rect x="832" y="530" width="11" height="8" rx="2" fill="#006d32"/>
<rect x="847" y="530" width="11" height="8" rx="2" fill="#39d353"/>
<rect x="862" y="530" width="11" height="8" rx="2" fill="#26a641"/>
<rect x="877" y="530" width="11" height="8" rx="2" fill="#006d32"/>
<rect x="892" y="530" width="11" height="8" rx="2" fill="#161b22"/>
<rect x="907" y="530" width="11" height="8" rx="2" fill="#0e4429"/>
<rect x="922" y="530" width="11" height="8" rx="2" fill="#006d32"/>
<rect x="937" y="530" width="11" height="8" rx="2" fill="#006d32"/>
<rect x="952" y="530" width="11" height="8" rx="2" fill="#006d32"/>
<rect x="967" y="530" width="11" height="8" rx="2" fill="#161b22"/>
<rect x="982" y="530" width="11" height="8" rx="2" fill="#006d32"/>
<rect x="997" y="530" width="11" height="8" rx="2" fill="#26a641"/>
<rect x="1012" y="530" width="11" height="8" rx="2" fill="#39d353"/>
<rect x="1027" y="530" width="11" height="8" rx="2" fill="#0e4429"/>
<rect x="1042" y="530" width="11" height="8" rx="2" fill="#26a641"/>
<rect x="1057" y="530" width="11" height="8" rx="2" fill="#39d353"/>
<rect x="1072" y="530" width="11" height="8" rx="2" fill="#006d32"/>
<rect x="1087" y="530" width="11" height="8" rx="2" fill="#0e4429"/>
<rect x="1102" y="530" width="11" height="8" rx="2" fill="#006d32"/>
<rect x="1117" y="530" width="11" height="8" rx="2" fill="#006d32"/>
<rect x="1132" y="530" width="11" height="8" rx="2" fill="#39d353"/>
<rect x="1147" y="530" width="11" height="8" rx="2" fill="#0e4429"/>
<rect x="442" y="541" width="11" height="8" rx="2" fill="#26a641"/>
<rect x="457" y="541" width="11" height="8" rx="2" fill="#39d353"/>
<rect x="472" y="541" width="11" height="8" rx="2" fill="#0e4429"/>
<rect x="487" y="541" width="11" height="8" rx="2" fill="#0e4429"/>
<rect x="502" y="541" width="11" height="8" rx="2" fill="#26a641"/>
<rect x="517" y="541" width="11" height="8" rx="2" fill="#161b22"/>
<rect x="532" y="541" width="11" height="8" rx="2" fill="#161b22"/>
<rect x="547" y="541" width="11" height="8" rx="2" fill="#0e4429"/>
<rect x="562" y="541" width="11" height="8" rx="2" fill="#0e4429"/>
<rect x="577" y="541" width="11" height="8" rx="2" fill="#006d32"/>
<rect x="592" y="541" width="11" height="8" rx="2" fill="#39d353"/>
<rect x="607" y="541" width="11" height="8" rx="2" fill="#39d353"/>
<rect x="622" y="541" width="11" height="8" rx="2" fill="#006d32"/>
<rect x="637" y="541" width="11" height="8" rx="2" fill="#26a641"/>
<rect x="652" y="541" width="11" height="8" rx="2" fill="#006d32"/>
<rect x="667" y="541" width="11" height="8" rx="2" fill="#006d32"/>
<rect x="682" y="541" width="11" height="8" rx="2" fill="#39d353"/>
<rect x="697" y="541" width="11" height="8" rx="2" fill="#0e4429"/>
<rect x="712" y="541" width="11" height="8" rx="2" fill="#39d353"/>
<rect x="727" y="541" width="11" height="8" rx="2" fill="#161b22"/>
<rect x="742" y="541" width="11" height="8" rx="2" fill="#0e4429"/>
<rect x="757" y="541" width="11" height="8" rx="2" fill="#006d32"/>
<rect x="772" y="541" width="11" height="8" rx="2" fill="#26a641"/>
<rect x="787" y="541" width="11" height="8" rx="2" fill="#006d32"/>
<rect x="802" y="541" width="11" height="8" rx="2" fill="#006d32"/>
<rect x="817" y="541" width="11" height="8" rx="2" fill="#0e4429"/>
<rect x="832" y="541" width="11" height="8" rx="2" fill="#39d353"/>
<rect x="847" y="541" width="11" height="8" rx="2" fill="#006d32"/>
<rect x="862" y="541" width="11" height="8" rx="2" fill="#39d353"/>
<rect x="877" y="541" width="11" height="8" rx="2" fill="#39d353"/>
<rect x="892" y="541" width="11" height="8" rx="2" fill="#006d32"/>
<rect x="907" y="541" width="11" height="8" rx="2" fill="#0e4429"/>
<rect x="922" y="541" width="11" height="8" rx="2" fill="#0e4429"/>
<rect x="937" y="541" width="11" height="8" rx="2" fill="#39d353"/>
<rect x="952" y="541" width="11" height="8" rx="2" fill="#0e4429"/>
<rect x="967" y="541" width="11" height="8" rx="2" fill="#26a641"/>
<rect x="982" y="541" width="11" height="8" rx="2" fill="#0e4429"/>
<rect x="997" y="541" width="11" height="8" rx="2" fill="#161b22"/>
<rect x="1012" y="541" width="11" height="8" rx="2" fill="#006d32"/>
<rect x="1027" y="541" width="11" height="8" rx="2" fill="#0e4429"/>
<rect x="1042" y="541" width="11" height="8" rx="2" fill="#161b22"/>
<rect x="1057" y="541" width="11" height="8" rx="2" fill="#006d32"/>
<rect x="1072" y="541" width="11" height="8" rx="2" fill="#006d32"/>
<rect x="1087" y="541" width="11" height="8" rx="2" fill="#26a641"/>
<rect x="1102" y="541" width="11" height="8" rx="2" fill="#39d353"/>
<rect x="1117" y="541" width="11" height="8" rx="2" fill="#0e4429"/>
<rect x="1132" y="541" width="11" height="8" rx="2" fill="#006d32"/>
<rect x="1147" y="541" width="11" height="8" rx="2" fill="#0e4429"/>
<rect x="442" y="552" width="11" height="8" rx="2" fill="#0e4429"/>
<rect x="457" y="552" width="11" height="8" rx="2" fill="#26a641"/>
<rect x="472" y="552" width="11" height="8" rx="2" fill="#161b22"/>
<rect x="487" y="552" width="11" height="8" rx="2" fill="#0e4429"/>
<rect x="502" y="552" width="11" height="8" rx="2" fill="#0e4429"/>
<rect x="517" y="552" width="11" height="8" rx="2" fill="#26a641"/>
<rect x="532" y="552" width="11" height="8" rx="2" fill="#39d353"/>
<rect x="547" y="552" width="11" height="8" rx="2" fill="#26a641"/>
<rect x="562" y="552" width="11" height="8" rx="2" fill="#0e4429"/>
<rect x="577" y="552" width="11" height="8" rx="2" fill="#006d32"/>
<rect x="592" y="552" width="11" height="8" rx="2" fill="#006d32"/>
<rect x="607" y="552" width="11" height="8" rx="2" fill="#006d32"/>
<rect x="622" y="552" width="11" height="8" rx="2" fill="#26a641"/>
<rect x="637" y="552" width="11" height="8" rx="2" fill="#006d32"/>
<rect x="652" y="552" width="11" height="8" rx="2" fill="#006d32"/>
<rect x="667" y="552" width="11" height="8" rx="2" fill="#0e4429"/>
<rect x="682" y="552" width="11" height="8" rx="2" fill="#0e4429"/>
<rect x="697" y="552" width="11" height="8" rx="2" fill="#161b22"/>
<rect x="712" y="552" width="11" height="8" rx="2" fill="#006d32"/>
<rect x="727" y="552" width="11" height="8" rx="2" fill="#006d32"/>
<rect x="742" y="552" width="11" height="8" rx="2" fill="#0e4429"/>
<rect x="757" y="552" width="11" height="8" rx="2" fill="#39d353"/>
<rect x="772" y="552" width="11" height="8" rx="2" fill="#39d353"/>
<rect x="787" y="552" width="11" height="8" rx="2" fill="#26a641"/>
<rect x="802" y="552" width="11" height="8" rx="2" fill="#006d32"/>
<rect x="817" y="552" width="11" height="8" rx="2" fill="#006d32"/>
<rect x="832" y="552" width="11" height="8" rx="2" fill="#26a641"/>
<rect x="847" y="552" width="11" height="8" rx="2" fill="#006d32"/>
<rect x="862" y="552" width="11" height="8" rx="2" fill="#161b22"/>
<rect x="877" y="552" width="11" height="8" rx="2" fill="#26a641"/>
<rect x="892" y="552" width="11" height="8" rx="2" fill="#0e4429"/>
<rect x="907" y="552" width="11" height="8" rx="2" fill="#161b22"/>
<rect x="922" y="552" width="11" height="8" rx="2" fill="#26a641"/>
<rect x="937" y="552" width="11" height="8" rx="2" fill="#26a641"/>
<rect x="952" y="552" width="11" height="8" rx="2" fill="#161b22"/>
<rect x="967" y="552" width="11" height="8" rx="2" fill="#26a641"/>
<rect x="982" y="552" width="11" height="8" rx="2" fill="#26a641"/>
<rect x="997" y="552" width="11" height="8" rx="2" fill="#26a641"/>
<rect x="1012" y="552" width="11" height="8" rx="2" fill="#26a641"/>
<rect x="1027" y="552" width="11" height="8" rx="2" fill="#26a641"/>
<rect x="1042" y="552" width="11" height="8" rx="2" fill="#006d32"/>
<rect x="1057" y="552" width="11" height="8" rx="2" fill="#161b22"/>
<rect x="1072" y="552" width="11" height="8" rx="2" fill="#39d353"/>
<rect x="1087" y="552" width="11" height="8" rx="2" fill="#006d32"/>
<rect x="1102" y="552" width="11" height="8" rx="2" fill="#0e4429"/>
<rect x="1117" y="552" width="11" height="8" rx="2" fill="#161b22"/>
<rect x="1132" y="552" width="11" height="8" rx="2" fill="#006d32"/>
<rect x="1147" y="552" width="11" height="8" rx="2" fill="#0e4429"/>
<rect x="442" y="563" width="11" height="8" rx="2" fill="#26a641"/>
<rect x="457" y="563" width="11" height="8" rx="2" fill="#006d32"/>
<rect x="472" y="563" width="11" height="8" rx="2" fill="#161b22"/>
<rect x="487" y="563" width="11" height="8" rx="2" fill="#006d32"/>
<rect x="502" y="563" width="11" height="8" rx="2" fill="#39d353"/>
<rect x="517" y="563" width="11" height="8" rx="2" fill="#39d353"/>
<rect x="532" y="563" width="11" height="8" rx="2" fill="#006d32"/>
<rect x="547" y="563" width="11" height="8" rx="2" fill="#161b22"/>
<rect x="562" y="563" width="11" height="8" rx="2" fill="#39d353"/>
<rect x="577" y="563" width="11" height="8" rx="2" fill="#006d32"/>
<rect x="592" y="563" width="11" height="8" rx="2" fill="#0e4429"/>
<rect x="607" y="563" width="11" height="8" rx="2" fill="#006d32"/>
<rect x="622" y="563" width="11" height="8" rx="2" fill="#161b22"/>
<rect x="637" y="563" width="11" height="8" rx="2" fill="#161b22"/>
<rect x="652" y="563" width="11" height="8" rx="2" fill="#0e4429"/>
<rect x="667" y="563" width="11" height="8" rx="2" fill="#39d353"/>
<rect x="682" y="563" width="11" height="8" rx="2" fill="#0e4429"/>
<rect x="697" y="563" width="11" height="8" rx="2" fill="#006d32"/>
<rect x="712" y="563" width="11" height="8" rx="2" fill="#0e4429"/>
<rect x="727" y="563" width="11" height="8" rx="2" fill="#0e4429"/>
<rect x="742" y="563" width="11" height="8" rx="2" fill="#0e4429"/>
<rect x="757" y="563" width="11" height="8" rx="2" fill="#0e4429"/>
<rect x="772" y="563" width="11" height="8" rx="2" fill="#39d353"/>
<rect x="787" y="563" width="11" height="8" rx="2" fill="#0e4429"/>
<rect x="802" y="563" width="11" height="8" rx="2" fill="#006d32"/>
<rect x="817" y="563" width="11" height="8" rx="2" fill="#006d32"/>
<rect x="832" y="563" width="11" height="8" rx="2" fill="#39d353"/>
<rect x="847" y="563" width="11" height="8" rx="2" fill="#39d353"/>
<rect x="862" y="563" width="11" height="8" rx="2" fill="#161b22"/>
<rect x="877" y="563" width="11" height="8" rx="2" fill="#26a641"/>
<rect x="892" y="563" width="11" height="8" rx="2" fill="#006d32"/>
<rect x="907" y="563" width="11" height="8" rx="2" fill="#161b22"/>
<rect x="922" y="563" width="11" height="8" rx="2" fill="#26a641"/>
<rect x="937" y="563" width="11" height="8" rx="2" fill="#26a641"/>
<rect x="952" y="563" width="11" height="8" rx="2" fill="#006d32"/>
<rect x="967" y="563" width="11" height="8" rx="2" fill="#161b22"/>
<rect x="982" y="563" width="11" height="8" rx="2" fill="#161b22"/>
<rect x="997" y="563" width="11" height="8" rx="2" fill="#0e4429"/>
<rect x="1012" y="563" width="11" height="8" rx="2" fill="#39d353"/>
<rect x="1027" y="563" width="11" height="8" rx="2" fill="#26a641"/>
<rect x="1042" y="563" width="11" height="8" rx="2" fill="#39d353"/>
<rect x="1057" y="563" width="11" height="8" rx="2" fill="#006d32"/>
<rect x="1072" y="563" width="11" height="8" rx="2" fill="#0e4429"/>
<rect x="1087" y="563" width="11" height="8" rx="2" fill="#0e4429"/>
<rect x="1102" y="563" width="11" height="8" rx="2" fill="#0e4429"/>
<rect x="1117" y="563" width="11" height="8" rx="2" fill="#39d353"/>
<rect x="1132" y="563" width="11" height="8" rx="2" fill="#39d353"/>
<rect x="1147" y="563" width="11" height="8" rx="2" fill="#006d32"/>
<rect x="442" y="574" width="11" height="8" rx="2" fill="#161b22"/>
<rect x="457" y="574" width="11" height="8" rx="2" fill="#161b22"/>
<rect x="472" y="574" width="11" height="8" rx="2" fill="#26a641"/>
<rect x="487" y="574" width="11" height="8" rx="2" fill="#006d32"/>
<rect x="502" y="574" width="11" height="8" rx="2" fill="#26a641"/>
<rect x="517" y="574" width="11" height="8" rx="2" fill="#26a641"/>
<rect x="532" y="574" width="11" height="8" rx="2" fill="#39d353"/>
<rect x="547" y="574" width="11" height="8" rx="2" fill="#006d32"/>
<rect x="562" y="574" width="11" height="8" rx="2" fill="#161b22"/>
<rect x="577" y="574" width="11" height="8" rx="2" fill="#39d353"/>
<rect x="592" y="574" width="11" height="8" rx="2" fill="#006d32"/>
<rect x="607" y="574" width="11" height="8" rx="2" fill="#39d353"/>
<rect x="622" y="574" width="11" height="8" rx="2" fill="#26a641"/>
<rect x="637" y="574" width="11" height="8" rx="2" fill="#161b22"/>
<rect x="652" y="574" width="11" height="8" rx="2" fill="#39d353"/>
<rect x="667" y="574" width="11" height="8" rx="2" fill="#006d32"/>
<rect x="682" y="574" width="11" height="8" rx="2" fill="#26a641"/>
<rect x="697" y="574" width="11" height="8" rx="2" fill="#0e4429"/>
<rect x="712" y="574" width="11" height="8" rx="2" fill="#0e4429"/>
<rect x="727" y="574" width="11" height="8" rx="2" fill="#39d353"/>
<rect x="742" y="574" width="11" height="8" rx="2" fill="#0e4429"/>
<rect x="757" y="574" width="11" height="8" rx="2" fill="#0e4429"/>
<rect x="772" y="574" width="11" height="8" rx="2" fill="#26a641"/>
<rect x="787" y="574" width="11" height="8" rx="2" fill="#006d32"/>
<rect x="802" y="574" width="11" height="8" rx="2" fill="#26a641"/>
<rect x="817" y="574" width="11" height="8" rx="2" fill="#26a641"/>
<rect x="832" y="574" width="11" height="8" rx="2" fill="#26a641"/>
<rect x="847" y="574" width="11" height="8" rx="2" fill="#39d353"/>
<rect x="862" y="574" width="11" height="8" rx="2" fill="#39d353"/>
<rect x="877" y="574" width="11" height="8" rx="2" fill="#006d32"/>
<rect x="892" y="574" width="11" height="8" rx="2" fill="#0e4429"/>
<rect x="907" y="574" width="11" height="8" rx="2" fill="#39d353"/>
<rect x="922" y="574" width="11" height="8" rx="2" fill="#006d32"/>
<rect x="937" y="574" width="11" height="8" rx="2" fill="#26a641"/>
<rect x="952" y="574" width="11" height="8" rx="2" fill="#006d32"/>
<rect x="967" y="574" width="11" height="8" rx="2" fill="#39d353"/>
<rect x="982" y="574" width="11" height="8" rx="2" fill="#26a641"/>
<rect x="997" y="574" width="11" height="8" rx="2" fill="#26a641"/>
<rect x="1012" y="574" width="11" height="8" rx="2" fill="#006d32"/>
<rect x="1027" y="574" width="11" height="8" rx="2" fill="#39d353"/>
<rect x="1042" y="574" width="11" height="8" rx="2" fill="#161b22"/>
<rect x="1057" y="574" width="11" height="8" rx="2" fill="#0e4429"/>
<rect x="1072" y="574" width="11" height="8" rx="2" fill="#39d353"/>
<rect x="1087" y="574" width="11" height="8" rx="2" fill="#39d353"/>
<rect x="1102" y="574" width="11" height="8" rx="2" fill="#39d353"/>
<rect x="1117" y="574" width="11" height="8" rx="2" fill="#006d32"/>
<rect x="1132" y="574" width="11" height="8" rx="2" fill="#006d32"/>
<rect x="1147" y="574" width="11" height="8" rx="2" fill="#0e4429"/>
  </g>
  <g transform="translate(442,508)">
    <!-- 7 rows, 36 cols of 14px cells -->
    <!-- generated below via repeated rects -->
  </g>

  <!-- back arrow loop: schedule repeats -->
  <path d="M190 290 C 190 360, 190 360, 380 360 L 1130 360 C 1180 360 1180 320 1180 300" fill="none" stroke="#6e7681" stroke-width="2" stroke-dasharray="6 6"/>
  <text x="640" y="352" fill="#8b949e" font-size="13" text-anchor="middle">↺ repeats automatically every day — fully hands-off</text>

  <!-- bottom note boxes -->
  <g filter="url(#shadow)">
    <rect x="60" y="660" width="360" height="120" rx="12" fill="#161b22" stroke="#30363d" stroke-width="1.5"/>
  </g>
  <text x="80" y="690" fill="#58a6ff" font-size="16" font-weight="700">💸 Cost</text>
  <text x="80" y="716" fill="#c9d1d9" font-size="13">GitHub Actions: 2000 free min/month</text>
  <text x="80" y="738" fill="#c9d1d9" font-size="13">This job uses ~1 min/day = ~30 min/mo</text>
  <text x="80" y="760" fill="#7ee787" font-size="13">Public repos = unlimited &amp; free forever</text>

  <g filter="url(#shadow)">
    <rect x="460" y="660" width="360" height="120" rx="12" fill="#161b22" stroke="#30363d" stroke-width="1.5"/>
  </g>
  <text x="480" y="690" fill="#58a6ff" font-size="16" font-weight="700">🔐 Access / Auth</text>
  <text x="480" y="716" fill="#c9d1d9" font-size="13">Built-in GITHUB_TOKEN (auto)</text>
  <text x="480" y="738" fill="#c9d1d9" font-size="13">No password, no PAT needed</text>
  <text x="480" y="760" fill="#c9d1d9" font-size="13">Permissions: contents: write</text>

  <g filter="url(#shadow)">
    <rect x="860" y="660" width="360" height="120" rx="12" fill="#161b22" stroke="#30363d" stroke-width="1.5"/>
  </g>
  <text x="880" y="690" fill="#58a6ff" font-size="16" font-weight="700">⚠️ Note</text>
  <text x="880" y="716" fill="#c9d1d9" font-size="13">Cron may run a few min/hours late</text>
  <text x="880" y="738" fill="#c9d1d9" font-size="13">Set commit email = your GitHub email</text>
  <text x="880" y="760" fill="#c9d1d9" font-size="13">so contributions are counted</text>
</svg>
